<svg xmlns="http://www.w3.org/2000/svg" xmlns:xlink="http://www.w3.org/1999/xlink" width="76.924" height="46" viewBox="0 0 76.924 46">
  <defs>
    <clipPath id="clip-path">
      <rect id="Rectangle_467" data-name="Rectangle 467" width="76.924" height="46" fill="none"/>
    </clipPath>
  </defs>
  <g id="aws" transform="translate(-36)">
    <g id="Group_18600" data-name="Group 18600" transform="translate(36)" clip-path="url(#clip-path)">
      <path id="Path_2704" data-name="Path 2704" d="M30.929,16.706a7.741,7.741,0,0,0,.281,2.277,13.694,13.694,0,0,0,.819,1.842,1.113,1.113,0,0,1,.179.588,1.013,1.013,0,0,1-.486.768l-1.612,1.075a1.227,1.227,0,0,1-.665.23,1.177,1.177,0,0,1-.768-.358,7.915,7.915,0,0,1-.921-1.2c-.256-.435-.512-.921-.793-1.509a9.451,9.451,0,0,1-7.522,3.531A7.01,7.01,0,0,1,14.325,22.1a6.572,6.572,0,0,1-1.893-4.912,6.586,6.586,0,0,1,2.328-5.27,9.307,9.307,0,0,1,6.268-2,20.256,20.256,0,0,1,2.712.2c.947.128,1.919.333,2.942.563V8.826c0-1.944-.409-3.3-1.2-4.093-.819-.793-2.2-1.177-4.17-1.177a11.64,11.64,0,0,0-2.763.333,20.386,20.386,0,0,0-2.763.87,7.341,7.341,0,0,1-.9.333,1.569,1.569,0,0,1-.409.077c-.358,0-.537-.256-.537-.793V3.121a1.619,1.619,0,0,1,.179-.9,1.916,1.916,0,0,1,.716-.537A14.729,14.729,0,0,1,18.06.537,15.511,15.511,0,0,1,22.052.051c3.044,0,5.27.691,6.7,2.072,1.407,1.382,2.123,3.479,2.123,6.294v8.289ZM20.542,20.6a8.291,8.291,0,0,0,2.635-.461,5.7,5.7,0,0,0,2.43-1.637,4.061,4.061,0,0,0,.87-1.637,9.185,9.185,0,0,0,.256-2.226V13.56a21.366,21.366,0,0,0-2.354-.435,19.278,19.278,0,0,0-2.4-.154,5.9,5.9,0,0,0-3.812,1.023,3.566,3.566,0,0,0-1.254,2.942A3.3,3.3,0,0,0,20.542,20.6m20.544,2.763a1.428,1.428,0,0,1-.972-.256,2.085,2.085,0,0,1-.537-1L33.564,2.328a4.482,4.482,0,0,1-.23-1.023.561.561,0,0,1,.614-.64h2.507a1.418,1.418,0,0,1,1,.256,2.093,2.093,0,0,1,.512,1l4.3,16.937L46.254,1.919a1.794,1.794,0,0,1,.486-1A1.76,1.76,0,0,1,47.763.665H49.81a1.54,1.54,0,0,1,1.023.256,1.724,1.724,0,0,1,.486,1L55.362,19.06,59.788,1.919a2.194,2.194,0,0,1,.512-1,1.669,1.669,0,0,1,1-.256h2.379a.569.569,0,0,1,.64.64,2.551,2.551,0,0,1-.051.409,3.64,3.64,0,0,1-.179.64L57.92,22.13a1.962,1.962,0,0,1-.537,1,1.637,1.637,0,0,1-.972.256h-2.2a1.54,1.54,0,0,1-1.023-.256A1.814,1.814,0,0,1,52.7,22.1L48.736,5.6,44.8,22.079A2,2,0,0,1,44.31,23.1a1.586,1.586,0,0,1-1.023.256Zm32.875.691a16.93,16.93,0,0,1-3.94-.461,11.639,11.639,0,0,1-2.942-1.023,1.843,1.843,0,0,1-.793-.716,1.806,1.806,0,0,1-.154-.716v-1.3c0-.537.2-.793.588-.793a1.449,1.449,0,0,1,.461.077c.154.051.384.154.64.256a13.916,13.916,0,0,0,2.814.9,15.364,15.364,0,0,0,3.044.307,6.9,6.9,0,0,0,3.735-.844,2.755,2.755,0,0,0,1.33-2.43,2.492,2.492,0,0,0-.691-1.791,6.419,6.419,0,0,0-2.584-1.33l-3.71-1.151a7.8,7.8,0,0,1-4.093-2.61A6.1,6.1,0,0,1,66.389,6.7a5.694,5.694,0,0,1,.691-2.84,6.578,6.578,0,0,1,1.842-2.1A8.12,8.12,0,0,1,71.582.435,11.151,11.151,0,0,1,74.806,0,12.843,12.843,0,0,1,76.52.1c.588.077,1.126.179,1.663.281.512.128,1,.256,1.458.409a5.583,5.583,0,0,1,1.075.461,2.212,2.212,0,0,1,.768.64,1.379,1.379,0,0,1,.23.844v1.2c0,.537-.2.819-.588.819a2.661,2.661,0,0,1-.972-.307,11.7,11.7,0,0,0-4.912-1,6.6,6.6,0,0,0-3.4.716,2.47,2.47,0,0,0-1.2,2.277A2.416,2.416,0,0,0,71.4,8.264a7.642,7.642,0,0,0,2.814,1.407l3.633,1.151a7.781,7.781,0,0,1,3.966,2.456,5.789,5.789,0,0,1,1.177,3.582,6.577,6.577,0,0,1-.665,2.968,6.88,6.88,0,0,1-1.868,2.251,8.247,8.247,0,0,1-2.84,1.433,12.166,12.166,0,0,1-3.659.537" transform="translate(-9.251)" fill="#252f3e"/>
      <path id="Path_2705" data-name="Path 2705" d="M69.545,124.326c-8.417,6.217-20.646,9.517-31.161,9.517A56.374,56.374,0,0,1,.341,119.337c-.793-.716-.077-1.689.87-1.126A76.723,76.723,0,0,0,39.28,128.317a75.968,75.968,0,0,0,29.038-5.935c1.407-.64,2.61.921,1.228,1.944" transform="translate(0 -87.843)" fill="#f90" fill-rule="evenodd"/>
      <path id="Path_2706" data-name="Path 2706" d="M254.863,115.906c-1.075-1.382-7.112-.665-9.85-.333-.819.1-.947-.614-.2-1.151,4.81-3.377,12.715-2.4,13.636-1.279.921,1.151-.256,9.057-4.759,12.843-.691.588-1.356.281-1.049-.486,1.023-2.533,3.3-8.238,2.226-9.594" transform="translate(-181.812 -83.415)" fill="#f90" fill-rule="evenodd"/>
    </g>
  </g>
</svg>
