<svg xmlns="http://www.w3.org/2000/svg" width="51.147" height="42.713" viewBox="0 0 51.147 42.713">
  <g id="cap" transform="translate(-3.879 -8.388)">
    <path id="Path_2767" data-name="Path 2767" d="M48.391,22.253a9.006,9.006,0,0,0-13.562-6.061A11.4,11.4,0,0,0,23.533,8.5c-13.166,0-12.01,13.779-12.01,13.779a10.928,10.928,0,0,0,2.026,21.232V40.329a7.933,7.933,0,0,1-5.983-5.3,7.689,7.689,0,0,1,4.95-9.722l2.418-.815-.3-1.591A7.979,7.979,0,0,1,14.5,20.7a11.177,11.177,0,0,1,2.321-6.183,7.824,7.824,0,0,1,6.79-3c3.463,0,7.73,3.077,8.722,5.979l.991,2.9L35.9,19a8.063,8.063,0,0,1,3.6-.948,5.884,5.884,0,0,1,5.775,4.793l.306,1.621,1.194.545a8.285,8.285,0,0,1,4.857,5.979,8.285,8.285,0,0,1-6.25,9.336v3.2a11.451,11.451,0,0,0,9.548-11.161,11.122,11.122,0,0,0-6.535-10.119Z" transform="translate(0 0)" fill="#5a7a94" stroke="#5a7a94" stroke-width="0.2"/>
    <g id="Group_18744" data-name="Group 18744" transform="translate(15.353 31.947)">
      <g id="Group_18743" data-name="Group 18743" transform="translate(0)">
        <path id="Path_2768" data-name="Path 2768" d="M26.337,47.2l-6.684-7.639a1.528,1.528,0,0,0-2.364,0,2.108,2.108,0,0,0,0,2.7l5.5,6.288-5.5,6.288a2.108,2.108,0,0,0,0,2.7,1.528,1.528,0,0,0,2.364,0L26.337,49.9A2.108,2.108,0,0,0,26.337,47.2Z" transform="translate(-16.799 -38.999)" fill="#0092d1" stroke="#0092d1" stroke-width="0.112"/>
        <path id="Path_2769" data-name="Path 2769" d="M27.921,42.819H41.289a1.927,1.927,0,0,0,0-3.819H27.921a1.927,1.927,0,0,0,0,3.819Z" transform="translate(-16.224 -38.999)" fill="#0092d1" stroke="#0092d1" stroke-width="0.112"/>
        <path id="Path_2770" data-name="Path 2770" d="M41.1,46.2H31.071a1.927,1.927,0,0,0,0,3.819H41.1a1.927,1.927,0,0,0,0-3.819Z" transform="translate(-16.032 -38.561)" fill="#0092d1" stroke="#0092d1" stroke-width="0.112"/>
        <path id="Path_2771" data-name="Path 2771" d="M41.289,53.4H27.921a1.927,1.927,0,0,0,0,3.819H41.289a1.927,1.927,0,0,0,0-3.819Z" transform="translate(-16.224 -38.122)" fill="#0092d1" stroke="#0092d1" stroke-width="0.112"/>
      </g>
    </g>
  </g>
</svg>
