<svg xmlns="http://www.w3.org/2000/svg" xmlns:xlink="http://www.w3.org/1999/xlink" width="40.901" height="46" viewBox="0 0 40.901 46">
  <defs>
    <clipPath id="clip-path">
      <rect id="Rectangle_486" data-name="Rectangle 486" width="40.901" height="46" transform="translate(0 0)" fill="none"/>
    </clipPath>
  </defs>
  <g id="Group_18615" data-name="Group 18615" transform="translate(0 -0.004)">
    <g id="Group_18615-2" data-name="Group 18615" transform="translate(0 0.004)" clip-path="url(#clip-path)">
      <path id="Path_2713" data-name="Path 2713" d="M40.9,13.513a3.989,3.989,0,0,0-.5-2.041,3.852,3.852,0,0,0-1.474-1.436Q30.758,5.329,22.58.623a4.022,4.022,0,0,0-4.347.038C16.066,1.933,5.2,8.158,1.978,10.036A3.771,3.771,0,0,0,0,13.526V32.477a4.132,4.132,0,0,0,.479,2,3.951,3.951,0,0,0,1.5,1.487c3.238,1.877,14.087,8.09,16.255,9.375a4,4,0,0,0,4.347.038q8.165-4.725,16.343-9.413a3.782,3.782,0,0,0,1.5-1.487,4.132,4.132,0,0,0,.479-2Z" transform="translate(0 -0.004)" fill="#9a4993"/>
      <path id="Path_2714" data-name="Path 2714" d="M44.456,1233.492l-20.047,11.542a3.951,3.951,0,0,0,1.5,1.487c3.238,1.877,14.087,8.089,16.255,9.375a4,4,0,0,0,4.347.038q8.165-4.725,16.343-9.412a3.782,3.782,0,0,0,1.5-1.487Z" transform="translate(-23.955 -1210.57)" fill="#6a1577"/>
      <path id="Path_2715" data-name="Path 2715" d="M783.836,1236.907a6.759,6.759,0,0,0,11.769-.038l-5.834-3.377Z" transform="translate(-769.27 -1210.57)" fill="#6a1577"/>
      <path id="Path_2716" data-name="Path 2716" d="M1123.6,619.176a3.989,3.989,0,0,0-.5-2.041l-19.9,11.454,19.921,11.542a4.131,4.131,0,0,0,.479-2Z" transform="translate(-1082.703 -605.667)" fill="#813084"/>
      <path id="Path_2717" data-name="Path 2717" d="M387.682,522.831a6.773,6.773,0,1,1-.05-6.7l5.91-3.4a13.571,13.571,0,1,0,.05,13.52Zm7.472-6.527h-1.348v6.514h1.348Zm2.986,0h-1.348v6.514h1.348Z" transform="translate(-361.347 -496.532)" fill="#fff"/>
      <path id="Path_2718" data-name="Path 2718" d="M1694.885,1122.969h-6.515v1.348h6.515Zm0,2.974h-6.515v1.348h6.515Z" transform="translate(-1656.995 -1102.101)" fill="#fff"/>
    </g>
  </g>
</svg>
