<svg id="Group_18076" data-name="Group 18076" xmlns="http://www.w3.org/2000/svg" xmlns:xlink="http://www.w3.org/1999/xlink" width="21.326" height="21.289" viewBox="0 0 21.326 21.289">
  <defs>
    <clipPath id="clip-path">
      <rect id="Rectangle_340" data-name="Rectangle 340" width="21.326" height="21.289" fill="#a01441"/>
    </clipPath>
  </defs>
  <g id="Group_18076-2" data-name="Group 18076" clip-path="url(#clip-path)">
    <path id="Path_2649" data-name="Path 2649" d="M21.326,4.994a2.558,2.558,0,0,0-.211.172Q14.143,12.121,7.169,19.074a1.056,1.056,0,0,1-.43.253q-3.276.965-6.558,1.913c-.052.015-.1.027-.181.047a1.134,1.134,0,0,1,.021-.162q.973-3.342,1.951-6.682a.575.575,0,0,1,.137-.237Q9.2,7.124,16.3.046A.7.7,0,0,1,16.364,0l4.962,4.949ZM6.6,17.581,16.67,7.527l-2.9-2.894L3.7,14.688l2.9,2.893M19.265,4.969l-2.9-2.9-1.5,1.491,2.906,2.9,1.493-1.494M2.965,16.06l-.928,3.181,3.179-.926L2.965,16.06" transform="translate(0 0.001)" fill="#a01441"/>
  </g>
</svg>
