<svg xmlns="http://www.w3.org/2000/svg" xmlns:xlink="http://www.w3.org/1999/xlink" width="46" height="62.383" viewBox="0 0 46 62.383">
  <defs>
    <clipPath id="clip-path">
      <rect id="Rectangle_570" data-name="Rectangle 570" width="46" height="62.382" fill="none"/>
    </clipPath>
  </defs>
  <g id="Group_18694" data-name="Group 18694" transform="translate(0 0)">
    <g id="Group_18694-2" data-name="Group 18694" transform="translate(0 0)" clip-path="url(#clip-path)">
      <path id="Path_2752" data-name="Path 2752" d="M14.871,49.1s-2.4,1.458,1.667,1.875a34.177,34.177,0,0,0,12.915-.521,19.516,19.516,0,0,0,3.437,1.667c-12.184,5.209-27.6-.312-18.021-3.022Zm-1.56-6.771s-2.6,1.979,1.458,2.4A49.335,49.335,0,0,0,31.437,43.9a6.353,6.353,0,0,0,2.5,1.562c-14.687,4.375-31.145.417-20.626-3.125ZM42.06,54.2s1.77,1.458-1.979,2.6c-6.979,2.086-29.27,2.71-35.52,0-2.187-.936,1.979-2.291,3.314-2.5A10.416,10.416,0,0,1,9.962,54c-2.4-1.667-15.937,3.437-6.874,4.893C27.983,62.954,48.5,57.121,42.045,54.2ZM16,35.248s-11.354,2.71-4.063,3.646a90.67,90.67,0,0,0,15-.1c4.687-.417,9.377-1.248,9.377-1.248A25.1,25.1,0,0,0,33.5,39C21.938,42.022-.251,40.668,6.1,37.542A21.591,21.591,0,0,1,16,35.252ZM36.311,46.6c11.666-6.043,6.25-11.872,2.5-11.145a6.584,6.584,0,0,0-1.355.417,1.786,1.786,0,0,1,1.041-.832c7.4-2.6,13.229,7.812-2.4,11.872a1.3,1.3,0,0,0,.209-.312ZM17.148,63.059C28.4,63.788,45.585,62.642,46,57.328c0,0-.832,2.086-9.27,3.646a93.9,93.9,0,0,1-28.437.417s1.458,1.248,8.855,1.667Z" transform="translate(0 -0.875)" fill="#4e7896"/>
      <path id="Path_2753" data-name="Path 2753" d="M29.631,0s6.459,6.562-6.145,16.458c-10.1,8.02-2.291,12.6,0,17.812-5.938-5.312-10.207-10-7.291-14.374C20.465,13.436,32.236,10.33,29.631,0M26.317,29.9c3.022,3.437-.832,6.562-.832,6.562S33.193,32.5,29.651,27.6c-3.228-4.687-5.731-6.979,7.812-14.791,0,0-21.353,5.312-11.145,17.083" transform="translate(-0.385 0)" fill="#f58219"/>
    </g>
  </g>
</svg>
