<svg xmlns="http://www.w3.org/2000/svg" xmlns:xlink="http://www.w3.org/1999/xlink" width="46" height="46" viewBox="0 0 46 46">
  <defs>
    <clipPath id="clip-path">
      <rect id="Rectangle_569" data-name="Rectangle 569" width="46" height="46" fill="none"/>
    </clipPath>
  </defs>
  <g id="javascript" transform="translate(-0.012 -0.012)">
    <rect id="Rectangle_568" data-name="Rectangle 568" width="46" height="46" transform="translate(0.012 0.012)" fill="#f0db4f"/>
    <g id="Group_18692" data-name="Group 18692" transform="translate(0.012 0.012)">
      <g id="Group_18691" data-name="Group 18691" transform="translate(0 0)" clip-path="url(#clip-path)">
        <path id="Path_2751" data-name="Path 2751" d="M687.186,1148.261c-.336-2.1-1.7-3.856-5.751-5.5-1.406-.646-2.974-1.109-3.441-2.175a2.372,2.372,0,0,1-.083-1.345c.3-1.218,1.755-1.6,2.908-1.249a3.2,3.2,0,0,1,1.869,1.734c1.982-1.284,1.978-1.275,3.362-2.157a8.549,8.549,0,0,0-1.109-1.484c-1.192-1.332-2.816-2.017-5.415-1.965-.45.057-.9.118-1.354.175a6.141,6.141,0,0,0-3.258,1.921,6.014,6.014,0,0,0,1.092,8.563c2.607,1.956,6.436,2.4,6.925,4.231.476,2.24-1.646,2.965-3.755,2.707a4.922,4.922,0,0,1-3.354-2.55c-1.72,1-1.72,1-3.489,2.013a7.766,7.766,0,0,0,1.563,2.127c3.327,3.375,11.655,3.209,13.148-1.9a6.308,6.308,0,0,0,.14-3.148m-17.2-13.869h-4.3c0,3.712-.017,7.4-.017,11.109,0,2.362.122,4.528-.262,5.192-.629,1.306-2.258,1.144-3,.891a3.688,3.688,0,0,1-1.585-1.646,2.2,2.2,0,0,0-.245-.393q-1.749,1.068-3.493,2.14a6.9,6.9,0,0,0,2.533,2.9,8.341,8.341,0,0,0,6.14.755,5.426,5.426,0,0,0,3.467-2.716c.978-1.8.769-3.987.76-6.4C670,1142.283,669.981,1138.344,669.981,1134.392Z" transform="translate(-644.977 -1113.248)" fill="#323330"/>
      </g>
    </g>
  </g>
</svg>
