<svg xmlns="http://www.w3.org/2000/svg" xmlns:xlink="http://www.w3.org/1999/xlink" width="202.809" height="29.5" viewBox="0 0 202.809 29.5">
  <defs>
    <clipPath id="clip-path">
      <rect id="Rectangle_40" data-name="Rectangle 40" width="70.344" height="22" fill="none"/>
    </clipPath>
  </defs>
  <g id="logo" transform="translate(-48 -41.5)">
    <g id="msg_logo" data-name="msg logo" transform="translate(48 49)">
      <g id="Group_17259" data-name="Group 17259" clip-path="url(#clip-path)">
        <path id="Path_2606" data-name="Path 2606" d="M0,26.893a3.665,3.665,0,1,1,3.669,3.661H3.661A3.665,3.665,0,0,1,0,26.893" transform="translate(0 -13.615)" fill="#a01441"/>
        <path id="Path_2607" data-name="Path 2607" d="M23.407,0V16.834h3.071V2.561h7.038V16.834h3.079V2.561h4.682c1.577,0,2.693.949,2.693,3.026V16.853h3.075V4.75c0-2.292-1.18-4.717-4.221-4.717Z" transform="translate(-13.721)" fill="#6f6f6f"/>
        <path id="Path_2608" data-name="Path 2608" d="M89.277,0c-3.317,0-4.323,2.2-4.323,4.671,0,2.648,1.1,4.856,4.111,4.856h7.31c2.239,0,2.239,1.725,2.239,2.508s0,2.231-2.182,2.231H85.242v2.568H97.721c3.113,0,4-1.831,4-4.777,0-3.514-1.135-5.09-3.8-5.09h-7.9c-1.993,0-1.993-1.343-1.993-2.243,0-.7.2-2.163,2.333-2.163h10.786V0Z" transform="translate(-49.801)" fill="#6f6f6f"/>
        <path id="Path_2609" data-name="Path 2609" d="M143.51,14.269h-6.429c-1.891,0-3.835.144-3.884-2.326V5.291c.106-2.069.869-2.8,4.02-2.727h6.313V14.288ZM136.128,0c-2.738,0-3.759.439-4.508,1.034-.821.654-1.572,1.483-1.589,4.308v6.076c0,2.992.832,3.827,1.679,4.539.571.408,1.513.874,4.425.874h7.371v.65c0,1.271-.246,1.823-1.7,1.823H132.2V22h10.589c2.855,0,3.782-1.271,3.782-3.672V0Z" transform="translate(-76.226)" fill="#6f6f6f" fill-rule="evenodd"/>
      </g>
    </g>
    <path id="Path_2757" data-name="Path 2757" d="M14.531-5.414a6.277,6.277,0,0,1-2,4.178A6.548,6.548,0,0,1,8.063.234,6.012,6.012,0,0,1,3.217-1.934a8.722,8.722,0,0,1-1.822-5.8V-9.375a9.722,9.722,0,0,1,.85-4.184A6.346,6.346,0,0,1,4.652-16.33,6.705,6.705,0,0,1,8.262-17.3a6.165,6.165,0,0,1,4.359,1.518,6.353,6.353,0,0,1,1.91,4.2H12.27A4.9,4.9,0,0,0,11-14.54a3.847,3.847,0,0,0-2.736-.917,4.026,4.026,0,0,0-3.381,1.6A7.323,7.323,0,0,0,3.656-9.323v1.654a7.527,7.527,0,0,0,1.16,4.422A3.749,3.749,0,0,0,8.063-1.605a4.33,4.33,0,0,0,2.877-.85,4.715,4.715,0,0,0,1.33-2.959ZM25.09,0a4.554,4.554,0,0,1-.3-1.336A4.837,4.837,0,0,1,21.176.234,4.476,4.476,0,0,1,18.1-.826a3.431,3.431,0,0,1-1.2-2.689A3.584,3.584,0,0,1,18.4-6.592a7.1,7.1,0,0,1,4.236-1.1H24.75v-1a2.435,2.435,0,0,0-.68-1.811,2.732,2.732,0,0,0-2-.674,3.161,3.161,0,0,0-1.945.586,1.727,1.727,0,0,0-.785,1.418h-2.18A2.992,2.992,0,0,1,17.83-11a4.6,4.6,0,0,1,1.828-1.4,6.15,6.15,0,0,1,2.537-.516,5.013,5.013,0,0,1,3.434,1.1A3.953,3.953,0,0,1,26.918-8.8v5.836a7.135,7.135,0,0,0,.445,2.777V0Zm-3.6-1.652a3.81,3.81,0,0,0,1.934-.527A3.19,3.19,0,0,0,24.75-3.551v-2.6h-1.7q-3.984,0-3.984,2.332a1.974,1.974,0,0,0,.68,1.594A2.612,2.612,0,0,0,21.492-1.652Zm14.953-9.082a6.5,6.5,0,0,0-1.066-.082A2.857,2.857,0,0,0,32.484-9V0H30.316V-12.68h2.109l.035,1.465a3.376,3.376,0,0,1,3.023-1.7,2.215,2.215,0,0,1,.961.164ZM43.7.234a5.54,5.54,0,0,1-4.2-1.693,6.285,6.285,0,0,1-1.617-4.529v-.4a7.609,7.609,0,0,1,.721-3.369,5.622,5.622,0,0,1,2.016-2.32,5.068,5.068,0,0,1,2.807-.838,4.749,4.749,0,0,1,3.844,1.629,7.053,7.053,0,0,1,1.371,4.664v.9h-8.59a4.507,4.507,0,0,0,1.1,3.029,3.444,3.444,0,0,0,2.666,1.154A3.776,3.776,0,0,0,45.762-2a4.888,4.888,0,0,0,1.395-1.242L48.48-2.215A5.325,5.325,0,0,1,43.7.234Zm-.27-11.367a2.892,2.892,0,0,0-2.2.955,4.642,4.642,0,0,0-1.1,2.678h6.352v-.164a4.129,4.129,0,0,0-.891-2.561A2.723,2.723,0,0,0,43.43-11.133ZM56.414.234a5.54,5.54,0,0,1-4.2-1.693A6.285,6.285,0,0,1,50.6-5.988v-.4a7.609,7.609,0,0,1,.721-3.369,5.622,5.622,0,0,1,2.016-2.32,5.068,5.068,0,0,1,2.807-.838,4.749,4.749,0,0,1,3.844,1.629,7.053,7.053,0,0,1,1.371,4.664v.9H52.77a4.507,4.507,0,0,0,1.1,3.029,3.444,3.444,0,0,0,2.666,1.154A3.776,3.776,0,0,0,58.477-2a4.888,4.888,0,0,0,1.395-1.242L61.2-2.215A5.325,5.325,0,0,1,56.414.234Zm-.27-11.367a2.892,2.892,0,0,0-2.2.955A4.642,4.642,0,0,0,52.84-7.5h6.352v-.164a4.129,4.129,0,0,0-.891-2.561A2.723,2.723,0,0,0,56.145-11.133Zm13.852.4a6.5,6.5,0,0,0-1.066-.082A2.857,2.857,0,0,0,66.035-9V0H63.867V-12.68h2.109l.035,1.465a3.376,3.376,0,0,1,3.023-1.7A2.215,2.215,0,0,1,70-12.75ZM80.52-6.68V0H78.27V-17.062h6.293a6.322,6.322,0,0,1,4.389,1.43,4.847,4.847,0,0,1,1.588,3.785,4.783,4.783,0,0,1-1.553,3.826A6.6,6.6,0,0,1,84.539-6.68Zm0-1.84h4.043a4.042,4.042,0,0,0,2.766-.851,3.112,3.112,0,0,0,.961-2.459,3.215,3.215,0,0,0-.961-2.442,3.787,3.787,0,0,0-2.637-.951H80.52ZM100.77,0a4.554,4.554,0,0,1-.3-1.336A4.837,4.837,0,0,1,96.855.234,4.476,4.476,0,0,1,93.779-.826a3.431,3.431,0,0,1-1.2-2.689,3.584,3.584,0,0,1,1.506-3.076,7.1,7.1,0,0,1,4.236-1.1h2.109v-1a2.435,2.435,0,0,0-.68-1.811,2.732,2.732,0,0,0-2-.674,3.161,3.161,0,0,0-1.945.586,1.727,1.727,0,0,0-.785,1.418h-2.18A2.992,2.992,0,0,1,93.51-11a4.6,4.6,0,0,1,1.828-1.4,6.15,6.15,0,0,1,2.537-.516,5.013,5.013,0,0,1,3.434,1.1A3.953,3.953,0,0,1,102.6-8.8v5.836a7.135,7.135,0,0,0,.445,2.777V0Zm-3.6-1.652a3.81,3.81,0,0,0,1.934-.527,3.19,3.19,0,0,0,1.324-1.371v-2.6h-1.7q-3.984,0-3.984,2.332a1.974,1.974,0,0,0,.68,1.594A2.612,2.612,0,0,0,97.172-1.652Zm11.766-14.1v3.07H111.3V-11h-2.367v7.873a1.76,1.76,0,0,0,.316,1.144,1.332,1.332,0,0,0,1.078.381,5.249,5.249,0,0,0,1.031-.141V0A6.322,6.322,0,0,1,109.7.234a2.7,2.7,0,0,1-2.191-.879,3.776,3.776,0,0,1-.738-2.5V-11h-2.309V-12.68h2.309v-3.07ZM116-11.145a4.609,4.609,0,0,1,3.75-1.77q4.02,0,4.055,4.535V0h-2.168V-8.391a2.919,2.919,0,0,0-.627-2.027,2.512,2.512,0,0,0-1.916-.656,3.129,3.129,0,0,0-1.852.563A3.82,3.82,0,0,0,116-9.035V0h-2.168V-18H116Z" transform="translate(127 64)" fill="#a01441"/>
    <line id="Line_97" data-name="Line 97" y2="28" transform="translate(123.5 41.5)" fill="none" stroke="#6f6f6f" stroke-width="1"/>
  </g>
</svg>
