<svg xmlns="http://www.w3.org/2000/svg" xmlns:xlink="http://www.w3.org/1999/xlink" width="41.743" height="46" viewBox="0 0 41.743 46">
  <defs>
    <clipPath id="clip-path">
      <rect id="Rectangle_479" data-name="Rectangle 479" width="41.743" height="46" transform="translate(0 0)" fill="none"/>
    </clipPath>
  </defs>
  <g id="Group_18610" data-name="Group 18610" transform="translate(0 -0.005)">
    <g id="Group_18610-2" data-name="Group 18610" transform="translate(0 0.005)" clip-path="url(#clip-path)">
      <path id="Path_2711" data-name="Path 2711" d="M18.988.5a3.857,3.857,0,0,1,3.766,0q8.6,4.859,17.2,9.716a3.541,3.541,0,0,1,1.788,3.05V32.751a3.579,3.579,0,0,1-1.922,3.116Q31.25,40.7,22.682,45.537a3.748,3.748,0,0,1-3.807-.106q-2.57-1.49-5.143-2.974a3.028,3.028,0,0,1-.992-.714c.219-.295.609-.331.927-.46a12,12,0,0,0,2.029-.947.473.473,0,0,1,.528.032c1.465.84,2.917,1.7,4.387,2.536.314.181.631-.059.9-.209q8.411-4.754,16.829-9.5a.557.557,0,0,0,.306-.548q.006-9.644,0-19.29a.6.6,0,0,0-.359-.6q-8.542-4.81-17.08-9.627a.593.593,0,0,0-.671,0Q12,7.945,3.459,12.762a.6.6,0,0,0-.361.6q0,9.644,0,19.291a.545.545,0,0,0,.31.541q2.279,1.292,4.561,2.576a3.524,3.524,0,0,0,2.852.382,2.163,2.163,0,0,0,1.4-2.033c.008-6.392,0-12.785.006-19.176a.481.481,0,0,1,.524-.491c.73,0,1.461-.01,2.191,0a.506.506,0,0,1,.477.585c0,6.432.008,12.865,0,19.3a4.893,4.893,0,0,1-2.288,4.419,7.047,7.047,0,0,1-6.3-.173c-1.671-.834-3.265-1.818-4.906-2.711A3.571,3.571,0,0,1,0,32.752V13.261a3.547,3.547,0,0,1,1.85-3.088Q10.42,5.336,18.988.5" transform="translate(0 -0.005)" fill="#8cc84b"/>
      <path id="Path_2712" data-name="Path 2712" d="M930.448,753.772c2.492-.16,5.16-.1,7.4,1.133a5.6,5.6,0,0,1,2.729,4.844.524.524,0,0,1-.569.386c-.723,0-1.446.01-2.169,0a.559.559,0,0,1-.523-.542,3.3,3.3,0,0,0-1.58-2.282,9.364,9.364,0,0,0-4.333-.62,5.882,5.882,0,0,0-3.1.772,1.966,1.966,0,0,0-.654,2.2c.232.552.869.73,1.391.894,3,.785,6.185.707,9.131,1.741a4.3,4.3,0,0,1,2.83,2.517,5.378,5.378,0,0,1-.911,5.131,7.189,7.189,0,0,1-3.86,2.08,18.544,18.544,0,0,1-5.826.247,9.181,9.181,0,0,1-5.125-1.928,5.378,5.378,0,0,1-1.732-4.242.486.486,0,0,1,.532-.428c.728-.006,1.456-.008,2.184,0a.51.51,0,0,1,.521.5,3.309,3.309,0,0,0,1.232,2.323c1.48.955,3.336.889,5.031.916,1.4-.062,2.979-.081,4.125-1.009a2.278,2.278,0,0,0,.62-2.176c-.177-.643-.85-.943-1.427-1.139-2.965-.938-6.182-.6-9.118-1.658a4.438,4.438,0,0,1-2.8-2.442,5,5,0,0,1,1-5.2,8.063,8.063,0,0,1,5.005-2.011Z" transform="translate(-906.476 -739.78)" fill="#8cc84b"/>
    </g>
  </g>
</svg>
