<svg xmlns="http://www.w3.org/2000/svg" xmlns:xlink="http://www.w3.org/1999/xlink" width="51.163" height="46" viewBox="0 0 51.163 46">
  <defs>
    <clipPath id="clip-path">
      <rect id="Rectangle_474" data-name="Rectangle 474" width="51.163" height="46" transform="translate(0 0)" fill="none"/>
    </clipPath>
  </defs>
  <g id="Group_18607" data-name="Group 18607" transform="translate(0 -0.005)">
    <g id="Group_18607-2" data-name="Group 18607" transform="translate(0 0.005)" clip-path="url(#clip-path)">
      <path id="Path_2707" data-name="Path 2707" d="M0,22.922c0,3.864,3.773,7.471,9.721,9.5-1.188,5.98-.213,10.8,3.044,12.678,3.347,1.93,8.334.594,13.067-3.543,4.614,3.97,9.276,5.533,12.53,3.649,3.344-1.936,4.361-7.083,3.14-13.249,6.2-2.048,9.661-5.124,9.661-9.039,0-3.774-3.78-7.039-9.648-9.06,1.314-6.421.2-11.124-3.191-13.08C35.055-1.1,30.338.54,25.657,4.615,20.786.29,16.116-1.03,12.728.931,9.462,2.822,8.53,7.73,9.721,13.82,3.974,15.824,0,19.163,0,22.922" transform="translate(0 -0.005)" fill="#fff"/>
      <path id="Path_2708" data-name="Path 2708" d="M178.847,147.183q-.725-.249-1.463-.461.122-.5.226-1c1.107-5.375.383-9.7-2.089-11.13-2.37-1.367-6.247.058-10.162,3.465q-.579.5-1.131,1.038-.37-.355-.753-.7c-4.1-3.643-8.216-5.178-10.686-3.749-2.368,1.371-3.069,5.441-2.073,10.535q.149.757.336,1.5c-.582.165-1.144.341-1.682.529-4.81,1.677-7.883,4.306-7.883,7.032,0,2.816,3.3,5.641,8.309,7.353q.609.207,1.229.384-.2.806-.357,1.622c-.95,5.005-.208,8.979,2.154,10.342,2.439,1.407,6.534-.039,10.52-3.524q.473-.413.948-.874.6.577,1.228,1.121c3.862,3.323,7.676,4.665,10.035,3.3,2.437-1.411,3.229-5.68,2.2-10.875q-.118-.6-.272-1.215.431-.127.845-.264c5.209-1.726,8.6-4.516,8.6-7.37C186.926,151.519,183.754,148.873,178.847,147.183Z" transform="translate(-138.574 -131.319)" fill="#53c1de"/>
      <path id="Path_2709" data-name="Path 2709" d="M270.031,251.886c-.248.082-.5.162-.763.239a45.555,45.555,0,0,0-2.3-5.756,45.539,45.539,0,0,0,2.211-5.672c.465.135.916.276,1.351.426,4.2,1.447,6.77,3.587,6.77,5.236,0,1.757-2.77,4.037-7.267,5.527Zm-1.866,3.7a16.435,16.435,0,0,1,.218,6A4.011,4.011,0,0,1,266.9,264.4c-1.432.829-4.494-.249-7.8-3.09q-.568-.489-1.143-1.042a45.615,45.615,0,0,0,3.809-4.836,45.31,45.31,0,0,0,6.154-.949Q268.058,255.046,268.165,255.584Zm-18.872,8.674a4.011,4.011,0,0,1-3.187.12c-1.433-.826-2.029-4.018-1.216-8.3q.145-.759.332-1.509a45.644,45.644,0,0,0,6.123.886,47.236,47.236,0,0,0,3.9,4.819q-.423.409-.866.8a16.44,16.44,0,0,1-5.086,3.184Zm-6.554-12.383a16.444,16.444,0,0,1-5.3-2.815,4.012,4.012,0,0,1-1.7-2.7c0-1.654,2.467-3.765,6.581-5.2q.775-.269,1.564-.492a46.552,46.552,0,0,0,2.215,5.739,47.255,47.255,0,0,0-2.242,5.82q-.565-.162-1.122-.351m2.2-14.955c-.854-4.364-.287-7.656,1.14-8.482,1.52-.88,4.881.375,8.424,3.52.226.2.454.412.682.629a46.516,46.516,0,0,0-3.871,4.79,47.43,47.43,0,0,0-6.063.942q-.174-.7-.312-1.4Zm19.6,4.84q-.666-1.151-1.382-2.272c1.45.183,2.839.426,4.143.724a41.412,41.412,0,0,1-1.454,3.913q-.63-1.2-1.307-2.364Zm-7.993-7.785a41.511,41.511,0,0,1,2.674,3.228q-2.684-.127-5.37,0c.883-1.164,1.787-2.246,2.7-3.227m-8.044,7.8q-.669,1.16-1.283,2.35c-.565-1.341-1.049-2.659-1.444-3.932,1.3-.29,2.679-.527,4.119-.707q-.723,1.128-1.393,2.289m1.434,11.6a41.328,41.328,0,0,1-4.188-.673c.4-1.3.9-2.642,1.473-4.011q.616,1.191,1.288,2.351.685,1.184,1.427,2.333m6.663,5.508c-.92-.993-1.838-2.091-2.734-3.272q1.3.051,2.658.051,1.389,0,2.743-.061a41.279,41.279,0,0,1-2.667,3.281m9.265-10.262a41.217,41.217,0,0,1,1.526,4,41.2,41.2,0,0,1-4.239.723q.72-1.142,1.395-2.312Q265.229,249.837,265.861,248.618Zm-3,1.438q-1.032,1.794-2.18,3.517c-1.348.1-2.741.146-4.161.146s-2.789-.044-4.114-.13q-1.177-1.719-2.221-3.522t-1.939-3.661q.9-1.867,1.933-3.663h0q1.035-1.795,2.2-3.507c1.351-.1,2.737-.156,4.137-.156s2.794.054,4.145.157q1.156,1.709,2.189,3.5t1.959,3.646q-.91,1.873-1.952,3.678Zm4-21.676c1.521.878,2.113,4.416,1.157,9.057q-.094.453-.2.9a46.5,46.5,0,0,0-6.075-.96,45.6,45.6,0,0,0-3.841-4.794q.51-.492,1.045-.958C262.3,228.709,265.437,227.556,266.866,228.38Z" transform="translate(-230.888 -223.423)" fill="#fff"/>
      <path id="Path_2710" data-name="Path 2710" d="M1051.767,916.768a4.057,4.057,0,1,1-4.057,4.057,4.057,4.057,0,0,1,4.057-4.057" transform="translate(-1026.135 -897.89)" fill="#53c1de"/>
    </g>
  </g>
</svg>
