<svg id="sap" xmlns="http://www.w3.org/2000/svg" xmlns:xlink="http://www.w3.org/1999/xlink" width="90.966" height="45" viewBox="0 0 90.966 45">
  <defs>
    <clipPath id="clip-path">
      <path id="Path_2782" data-name="Path 2782" d="M0,0V45H45.974L90.966,0Z" fill="none"/>
    </clipPath>
    <linearGradient id="linear-gradient" y1="1" x2="0.011" y2="1" gradientUnits="objectBoundingBox">
      <stop offset="0" stop-color="#00aeef"/>
      <stop offset="0.212" stop-color="#0097dc"/>
      <stop offset="0.519" stop-color="#007cc5"/>
      <stop offset="0.792" stop-color="#006cb8"/>
      <stop offset="1" stop-color="#0066b3"/>
    </linearGradient>
    <clipPath id="clip-path-2">
      <rect id="Rectangle_592" data-name="Rectangle 592" width="90.966" height="45" fill="none"/>
    </clipPath>
  </defs>
  <g id="Group_18748" data-name="Group 18748">
    <g id="Group_18747" data-name="Group 18747" clip-path="url(#clip-path)">
      <rect id="Rectangle_591" data-name="Rectangle 591" width="90.966" height="45" fill="url(#linear-gradient)"/>
    </g>
  </g>
  <g id="Group_18750" data-name="Group 18750">
    <g id="Group_18749" data-name="Group 18749" clip-path="url(#clip-path-2)">
      <path id="Path_2783" data-name="Path 2783" d="M53.984,9H45l.03,21.13L37.207,8.993H29.45L22.772,26.646c-.71-4.492-5.354-6.042-9.008-7.2-2.413-.775-4.974-1.915-4.948-3.175.02-1.034,1.37-1.993,4.053-1.85a14.653,14.653,0,0,1,6.553,1.77l3.11-5.42A24.188,24.188,0,0,0,12.39,8.37h-.02c-3.813,0-6.988,1.235-8.956,3.27a7.547,7.547,0,0,0-2.142,5.223,7.015,7.015,0,0,0,3.073,6.253,20.942,20.942,0,0,0,6.09,2.784c2.485.77,4.515,1.44,4.49,2.866a2.112,2.112,0,0,1-.59,1.4,3.937,3.937,0,0,1-2.885.906,12.37,12.37,0,0,1-7.413-2.116L1.27,34.444A19.229,19.229,0,0,0,11.05,37l.812-.006a12.2,12.2,0,0,0,7.718-2.44c.116-.093.22-.187.328-.282l-.34,1.752L27.148,36l1.36-3.482a14.873,14.873,0,0,0,4.782.758,15.03,15.03,0,0,0,4.667-.716L38.9,36l13.6.013.033-7.938h2.894c6.995,0,11.13-3.56,11.13-9.53C66.56,11.9,62.54,9,53.984,9M33.29,27.062a8.128,8.128,0,0,1-2.868-.5L33.258,17.6h.055l2.79,8.98a8.4,8.4,0,0,1-2.814.477Zm21.22-5.145H52.536V14.7h1.975c2.63,0,4.73.876,4.73,3.562,0,2.78-2.1,3.655-4.73,3.655" fill="#fff" fill-rule="evenodd"/>
    </g>
  </g>
</svg>
