<svg id="Spring_logo" data-name="Spring logo" xmlns="http://www.w3.org/2000/svg" width="46.041" height="46" viewBox="0 0 46.041 46">
  <path id="Path_2703" data-name="Path 2703" d="M41.928,2.658a20.033,20.033,0,0,1-2.464,4.311A22.983,22.983,0,1,0,7.345,39.829l.855.764A22.955,22.955,0,0,0,45.9,24.66c.673-5.783-1.084-13.185-3.969-22M10.676,40.023a1.954,1.954,0,1,1-.285-2.749,2.005,2.005,0,0,1,.285,2.749m31.1-6.878C36.134,40.685,24,38.13,16.265,38.506c0,0-1.38.091-2.749.285,0,0,.525-.24,1.186-.479,5.452-1.893,8.018-2.281,11.337-3.981C32.256,31.15,38.461,24.181,39.7,16.972c-2.372,6.923-9.581,12.9-16.128,15.318a109.078,109.078,0,0,1-12.615,3.273l-.331-.194c-5.509-2.692-5.7-14.645,4.357-18.489,4.414-1.711,8.589-.764,13.379-1.893C33.431,13.8,39.316,10,41.689,5.019c2.658,8.018,5.885,20.451.091,28.127" fill="#6cb52d"/>
  <rect id="Rectangle_466" data-name="Rectangle 466" width="46.041" height="46" fill="none"/>
</svg>
