<svg id="ui5" xmlns="http://www.w3.org/2000/svg" xmlns:xlink="http://www.w3.org/1999/xlink" width="43.675" height="46" viewBox="0 0 43.675 46">
  <defs>
    <clipPath id="clip-path">
      <rect id="Rectangle_590" data-name="Rectangle 590" width="43.675" height="46" fill="none"/>
    </clipPath>
  </defs>
  <g id="Group_18745" data-name="Group 18745" clip-path="url(#clip-path)">
    <path id="Path_2772" data-name="Path 2772" d="M21.326,0s0,1.915,5,4.955c9.717,5.9,9.684,11.315,9.684,12.451,0,4.825-5.021,7.943-7.351,5.419a5.953,5.953,0,0,0,2.286-4.306,11.477,11.477,0,0,1-2.553,1.3A9.2,9.2,0,0,0,29,14.252a8.6,8.6,0,0,1-3.848,3.239,6.8,6.8,0,0,0,.076-4.991s.229,3.048-6.706,6.287-4.8,6.477-4.8,6.477a3.266,3.266,0,0,1,3.729-.437c3.175,1.395,1.892,6.992-3.214,6.992C9.267,31.819,6,26.413,6,22.192A11.99,11.99,0,0,1,9.347,13.7c2.508-2.809,5.6-4.291,6.265-7.4C12.174,9.491,5.977,11.57,2.292,17.02c-3.31,4.9-2.236,11.371-1.64,13.363A21.982,21.982,0,0,0,43.674,24.22C43.674,5.9,26.262,3.961,21.326,0M18.395,22.421a2.686,2.686,0,0,1-1.311-.248,1.984,1.984,0,0,0-.746-.135A9.323,9.323,0,0,1,17.5,21.37c.585-.269,1.085-.283,1.318.253a.612.612,0,0,1-.427.8" transform="translate(0.001)" fill="#0080cc"/>
    <path id="Path_2773" data-name="Path 2773" d="M43.683,173.6a21.586,21.586,0,0,0-1.822-9.085,12.969,12.969,0,0,1-3.246,12.754,9.562,9.562,0,0,1-12.9.8s.55,8.7-9.758,9.985c-6.731.838-12.028-3.451-14.327-8.914a14.114,14.114,0,0,1,.082-11.768C-.87,172.12.1,177.9.661,179.764A21.982,21.982,0,0,0,43.683,173.6" transform="translate(-0.009 -149.381)" fill="#008bd6"/>
    <path id="Path_2774" data-name="Path 2774" d="M211.006,316.935c-1.143.31-10.1,2.439-15.743-5.083,0,0,2.624,10.184-8.526,16.836a22.025,22.025,0,0,0,24.268-11.753" transform="translate(-169.558 -283.162)" fill="#00b1e3"/>
    <path id="Path_2775" data-name="Path 2775" d="M290.287,323.381c-7-3.6-10.88-11.529-10.88-11.529,3.122,7.614,1.768,13.552.37,16.867a22.1,22.1,0,0,0,10.511-5.338" transform="translate(-253.702 -283.162)" fill="#2ebbde"/>
    <path id="Path_2776" data-name="Path 2776" d="M158.619,222.606q-.259,0-.515-.018c-.274-.016-.542-.023-.8-.023a10.108,10.108,0,0,0-4.361.894h0c.585-.269,1.085-.284,1.318.253a.612.612,0,0,1-.427.8,2.687,2.687,0,0,1-1.311-.248,2.139,2.139,0,0,0-.74-.136,7.132,7.132,0,0,0-2.622,3.226,2.912,2.912,0,0,1,1.394-.727h0a21.419,21.419,0,0,0,4.951-1.657,11.256,11.256,0,0,0,3.111-2.363" transform="translate(-135.44 -202.089)" fill="#2ebbde"/>
    <path id="Path_2777" data-name="Path 2777" d="M152.8,142.637a26.716,26.716,0,0,0,4.748-1.878,6.8,6.8,0,0,0,.076-4.994s.229,3.05-6.711,6.292-4.8,6.482-4.8,6.482-1.15-3.521,6.692-5.9" transform="translate(-132.382 -123.274)" fill="#008bd6"/>
    <path id="Path_2778" data-name="Path 2778" d="M252.117,160.279a22.2,22.2,0,0,0,5.058-.706h0a6.776,6.776,0,0,0,.622-2.007,10.931,10.931,0,0,0-.01-3.644s-.565,1.583-3.854,3.324a10.03,10.03,0,0,1-1.984,3.032h.167" transform="translate(-228.771 -139.761)" fill="#008bd6"/>
    <path id="Path_2779" data-name="Path 2779" d="M228.439,202.5a9.266,9.266,0,0,1-8.137,4.48c.437,0,.9,0,1.376,0,2.508,0,5.4-.109,7.026-1.472A5.557,5.557,0,0,0,231,201.2a11.87,11.87,0,0,1-2.557,1.3" transform="translate(-200.034 -182.687)" fill="#008bd6"/>
    <path id="Path_2780" data-name="Path 2780" d="M156.721,193.043c.259,0,.526.008.8.023q.256.015.515.018a10.029,10.029,0,0,0,1.984-3.032,26.717,26.717,0,0,1-4.748,1.878c-7.842,2.38-6.692,5.9-6.692,5.9s1.6-4.788,8.141-4.788" transform="translate(-134.857 -172.567)" fill="#00b1e3"/>
    <path id="Path_2781" data-name="Path 2781" d="M177.607,215.355l-.012,0h0a22.167,22.167,0,0,1-5.046.7h-.167a11.253,11.253,0,0,1-3.111,2.363,21.416,21.416,0,0,1-4.951,1.657h0q.1-.023.213-.04a7.823,7.823,0,0,1,.916-.118c.934-.078,2.2-.087,4.021-.087a9.266,9.266,0,0,0,8.136-4.479" transform="translate(-149.203 -195.542)" fill="#00b1e3"/>
  </g>
</svg>
